{
	"asset":{
		"generator":"Khronos glTF Blender I/O v4.4.56",
		"version":"2.0"
	},
	"scene":0,
	"scenes":[
		{
			"name":"Scene",
			"nodes":[
				0
			]
		}
	],
	"nodes":[
		{
			"mesh":0,
			"name":"LOD3spShape.001",
			"translation":[
				0.11252236366271973,
				0,
				0
			]
		}
	],
	"materials":[
		{
			"emissiveFactor":[
				1,
				1,
				1
			],
			"emissiveTexture":{
				"index":0
			},
			"name":"blinn3-fx.001",
			"pbrMetallicRoughness":{
				"baseColorTexture":{
					"index":1
				},
				"metallicRoughnessTexture":{
					"index":2
				}
			}
		}
	],
	"meshes":[
		{
			"name":"LOD3spShape.001",
			"primitives":[
				{
					"attributes":{
						"POSITION":0,
						"NORMAL":1,
						"TEXCOORD_0":2
					},
					"indices":3,
					"material":0
				}
			]
		}
	],
	"textures":[
		{
			"sampler":0,
			"source":0
		},
		{
			"sampler":0,
			"source":1
		},
		{
			"sampler":0,
			"source":2
		}
	],
	"images":[
		{
			"mimeType":"image/png",
			"name":"emission",
			"uri":"emission.png"
		},
		{
			"mimeType":"image/png",
			"name":"Image_0",
			"uri":"Image_0.png"
		},
		{
			"mimeType":"image/png",
			"name":"metallicRoughness",
			"uri":"metallicRoughness.png"
		}
	],
	"accessors":[
		{
			"bufferView":0,
			"componentType":5126,
			"count":2399,
			"max":[
				0.8092766404151917,
				0.9622589349746704,
				0.5777536034584045
			],
			"min":[
				-0.8455033898353577,
				-0.5781511068344116,
				-0.5747763514518738
			],
			"type":"VEC3"
		},
		{
			"bufferView":1,
			"componentType":5126,
			"count":2399,
			"type":"VEC3"
		},
		{
			"bufferView":2,
			"componentType":5126,
			"count":2399,
			"type":"VEC2"
		},
		{
			"bufferView":3,
			"componentType":5123,
			"count":12636,
			"type":"SCALAR"
		}
	],
	"bufferViews":[
		{
			"buffer":0,
			"byteLength":28788,
			"byteOffset":0,
			"target":34962
		},
		{
			"buffer":0,
			"byteLength":28788,
			"byteOffset":28788,
			"target":34962
		},
		{
			"buffer":0,
			"byteLength":19192,
			"byteOffset":57576,
			"target":34962
		},
		{
			"buffer":0,
			"byteLength":25272,
			"byteOffset":76768,
			"target":34963
		}
	],
	"samplers":[
		{
			"magFilter":9729,
			"minFilter":9987
		}
	],
	"buffers":[
		{
			"byteLength":102040,
			"uri":"Duck.bin"
		}
	]
}
